# xmcd
#
# Track frame offsets:
#	150
#	13990
#	24688
#	35860
#	46633
#	58340
#	69613
#	81060
#	93720
#	104805
#	113715
#	128098
#	138228
#	148625
#
# Disc length: 2135 seconds
#
# Revision: 0
# Processed by: cddbd v1.4PL0 Copyright (c) Steve Scherf et al.
# Submitted via: EasyCDDAExtractor 4.6.9.1
#
DISCID=cf08550e
DTITLE=Patsy Cline - Walkin' Dreams - Volume 1
DYEAR=1900
DGENRE=
TTITLE0=A Church, A Courtroom, And Then Goodbye
TTITLE1=Honky Tonk Merry-Go-Round
TTITLE2=Hidin' Out
TTITLE3=I Cried All The Way To The Alter
TTITLE4=I've Loved And Lost Again
TTITLE5=Dear God
TTITLE6=Walkin' After Midnight
TTITLE7=Fingerprints
TTITLE8=A Stranger In My Arms
TTITLE9=Try Again
TTITLE10=Then You'll Know
TTITLE11=Three Cigarettes In An Ashtray
TTITLE12=He Will Do For You
TTITLE13=A Poor Man's Roses
EXTD=
EXTT0=
EXTT1=
EXTT2=
EXTT3=
EXTT4=
EXTT5=
EXTT6=
EXTT7=
EXTT8=
EXTT9=
EXTT10=
EXTT11=
EXTT12=
EXTT13=
PLAYORDER=
